<svg xmlns="http://www.w3.org/2000/svg">
    <symbol viewBox="0 0 24 24" id="left"><path fill="currentColor" fill-rule="evenodd" d="M13.729 5.575c1.304-1.074 3.27-.146 3.27 1.544v9.762c0 1.69-1.966 2.618-3.27 1.544l-5.927-4.881a2 2 0 0 1 0-3.088z" clip-rule="evenodd"></path></symbol>
    <symbol viewBox="0 0 24 24" id="right"><path fill="currentColor" fill-rule="evenodd" d="M10.271 5.575C8.967 4.501 7 5.43 7 7.12v9.762c0 1.69 1.967 2.618 3.271 1.544l5.927-4.881a2 2 0 0 0 0-3.088l-5.927-4.88Z" clip-rule="evenodd"></path></symbol>
    <symbol viewBox="0 0 24 24" id="rw"><path fill="currentColor" d="M10.03 4.362c.974-.83 2.472-.137 2.472 1.142v3.99l6.027-5.13c.974-.83 2.473-.138 2.473 1.142v12.992c0 .879-.707 1.48-1.465 1.503h-.087a1.48 1.48 0 0 1-.92-.36l-6.028-5.13v3.986c0 1.279-1.498 1.971-2.472 1.142l-7.41-6.306a1.75 1.75 0 0 1 0-2.665zm-7.41 6.306l.486.57Z"></path></symbol>
    <symbol viewBox="0 0 24 24" id="ff"><path fill="currentColor" d="M13.97 4.363c-.974-.83-2.472-.137-2.472 1.142v3.988L5.47 4.363c-.974-.829-2.472-.136-2.472 1.143v12.993c0 .878.707 1.48 1.465 1.502h.087c.318-.01.64-.122.92-.36l6.028-5.13v3.987c0 1.279 1.498 1.971 2.472 1.142l7.41-6.306a1.75 1.75 0 0 0 0-2.665z"></path></symbol>
    <symbol viewBox="0 0 24 24" id="close"><path fill="none" stroke="currentColor" stroke-linecap="round" stroke-linejoin="round" stroke-width="2" d="M6 18L18 6m0 12L6 6"></path></symbol>
    <symbol viewBox="0 0 24 24" id="mute"><path fill="currentColor" d="M5.707 4.293a1 1 0 0 0-1.414 1.414l14 14a1 1 0 0 0 1.414-1.414l-.004-.005C21.57 16.498 22 13.938 22 12a9.97 9.97 0 0 0-2.929-7.071a1 1 0 1 0-1.414 1.414A7.97 7.97 0 0 1 20 12c0 1.752-.403 3.636-1.712 4.873l-1.433-1.433C17.616 14.37 18 13.107 18 12c0-1.678-.69-3.197-1.8-4.285a1 1 0 1 0-1.4 1.428A4 4 0 0 1 16 12c0 .606-.195 1.335-.59 1.996L13 11.586V6.135c0-1.696-1.978-2.622-3.28-1.536L7.698 6.284l-1.99-1.991ZM4 8h.586L13 16.414v1.451c0 1.696-1.978 2.622-3.28 1.536L5.638 16H4a2 2 0 0 1-2-2v-4a2 2 0 0 1 2-2"></path></symbol>
    <symbol viewBox="0 0 24 24" id="star"><path fill="currentColor" d="m12 15.39l-3.76 2.27l.99-4.28l-3.32-2.88l4.38-.37L12 6.09l1.71 4.04l4.38.37l-3.32 2.88l.99 4.28M22 9.24l-7.19-.61L12 2L9.19 8.63L2 9.24l5.45 4.73L5.82 21L12 17.27L18.18 21l-1.64-7.03z"></path></symbol>
</svg>
